<svg xmlns="http://www.w3.org/2000/svg"  viewBox="0 0 72 72" width="64px" height="64px"><path d="M12 28h48v12L43 57H20c-4.41 0-8-3.59-8-8V28zM26.5 50.5c1.381 0 2.5-1.119 2.5-2.5 0-1.381-1.119-2.5-2.5-2.5S24 46.619 24 48C24 49.381 25.119 50.5 26.5 50.5zM26.5 44c1.381 0 2.5-1.119 2.5-2.5 0-1.381-1.119-2.5-2.5-2.5S24 40.119 24 41.5C24 42.881 25.119 44 26.5 44zM26.5 37.5c1.381 0 2.5-1.119 2.5-2.5 0-1.381-1.119-2.5-2.5-2.5S24 33.619 24 35C24 36.381 25.119 37.5 26.5 37.5zM45 50c1.104 0 2-.896 2-2s-.896-2-2-2H34c-1.104 0-2 .896-2 2s.896 2 2 2H45zM44 43.5c1.104 0 2-.896 2-2s-.896-2-2-2H34c-1.104 0-2 .896-2 2s.896 2 2 2H44zM44 37c1.104 0 2-.896 2-2s-.896-2-2-2H34c-1.104 0-2 .896-2 2s.896 2 2 2H44zM60 24H12v-1c0-4.411 3.589-8 8-8h32c4.411 0 8 3.589 8 8V24zM61.707 43.529l3.633 3.647 1.107-1.135c.553-.582.597-1.383.044-1.936l-1.793-1.807c-.495-.495-1.325-.422-1.863.116L61.707 43.529zM46.215 63.171c-.335.131-.713-.247-.568-.582L46.251 59l14.387-14.401 3.656 3.641L49.906 62.626 46.215 63.171z"/></svg>