<svg xmlns="http://www.w3.org/2000/svg"  viewBox="0 0 50 50" width="100px" height="100px"><path d="M42.339 32.986H40c-.553 0-1 .447-1 1s.447 1 1 1h2.339c1.433 0 2.627 1.091 2.661 2.432.018.683-.234 1.326-.709 1.813-.944.968-2.613.98-3.574-.007-.384-.396-1.019-.406-1.414-.02-.396.385-.405 1.018-.02 1.414.856.882 1.999 1.367 3.218 1.367 1.224 0 2.368-.482 3.223-1.359s1.308-2.034 1.276-3.261C46.938 34.951 44.847 32.986 42.339 32.986zM48.767 23.4c-.845-.89-2.033-1.4-3.26-1.4-1.225 0-2.371.49-3.228 1.381-.383.398-.37 1.031.027 1.414.399.383 1.032.37 1.414-.027.962-1.001 2.654-.98 3.595.01.476.501.718 1.158.681 1.853-.067 1.299-1.271 2.356-2.685 2.356h-6.325c-.553 0-1 .447-1 1s.447 1 1 1h6.325c2.501 0 4.558-1.868 4.683-4.252C50.059 25.487 49.623 24.304 48.767 23.4zM37.673 25.514c-.027-.049-.059-.095-.093-.139l-4.579-5.725c-.022-4.711-1.425-8.603-4.066-11.271C26.058 5.474 21.79 4 16.25 4 4.269 4 0 12.695 0 20.833c0 5.438 1.326 7.615 2.609 9.721C3.839 32.571 5 34.478 5 39.666V45c0 .553.447 1 1 1h14c.553 0 1-.447 1-1v-3.791C22.637 41.51 25.53 42 27 42c5.419 0 6.948-3.908 7-6v-5.432l2.702-1.611c.598-.332 1.025-.873 1.206-1.523C38.087 26.791 38.004 26.108 37.673 25.514z"/></svg>