<svg xmlns="http://www.w3.org/2000/svg"  viewBox="0 0 66 66" width="66px" height="66px"><path d="M 29.146484 0.97265625 C 26.324609 0.85546874 23.375391 1.2492188 20.400391 2.1992188 C 15.800391 3.6992188 11.999219 6.8007813 9.6992188 10.800781 C 6.7992192 15.900781 6.4000001 22.000391 8.5 28.900391 C 9.6999998 32.80039 9.8003912 36.599609 8.9003906 40.099609 C 8.6003904 41.29961 8.2007813 42.40078 7.8007812 43.300781 C 7.2007814 44.40078 6.5992184 45.499611 6.1992188 46.599609 C 4.499219 51.199608 4.8992185 55.999222 7.1992188 59.699219 C 9.1992188 62.89922 12.4 64.799995 16 65 L 16.599609 65 C 20.999609 65 25.800781 62.599216 28.800781 58.699219 C 30.10078 56.999218 31.000782 55.39922 31.300781 53.699219 L 31.300781 53.599609 C 31.600781 50.499611 33 47.799217 35.5 45.199219 C 45.200001 35.699215 53.400784 26.299608 48.300781 14.599609 C 44.925781 6.2746091 37.612109 1.3242188 29.146484 0.97265625 z M 27.642578 12.072266 C 30.16914 12.062891 32.62578 12.70039 34.800781 13.900391 C 38.60078 16.00039 40.60078 19.499609 40.800781 24.099609 C 40.90078 24.699608 40.400391 25.099609 39.900391 25.099609 C 39.300392 25.099609 38.900391 24.69961 38.900391 24.099609 C 38.70039 20.19961 37.100391 17.39961 33.900391 15.599609 C 31.500391 14.19961 28.5 13.800781 25.5 14.300781 C 20.699999 15.100781 18.40078 17.800781 18.300781 22.800781 C 22.60078 20.400782 26.60078 20.400782 30.300781 22.800781 C 32.500782 24.200781 34.10078 26.400391 34.800781 28.900391 C 36.300781 34.700392 33.40078 39.699219 25.800781 44.199219 C 25.10078 44.59922 24.500782 45.299606 24.300781 46.099609 L 22.900391 50.099609 C 22.20039 52.099609 20.499611 53.500782 18.599609 53.800781 L 17.900391 53.800781 C 16.900391 53.800781 15.999219 53.40078 15.199219 52.800781 C 14.399219 52.10078 13.900391 51.100391 13.900391 49.900391 C 13.700391 45.400391 14.000782 42.899609 15.800781 39.599609 C 16.10078 39.099609 16.699219 38.899219 17.199219 39.199219 C 17.699219 39.499218 17.899611 40.099609 17.599609 40.599609 C 15.89961 43.599609 15.8 45.800781 16 49.800781 C 16 50.40078 16.299608 51.000782 16.599609 51.300781 C 17.099609 51.700783 17.600391 51.90078 18.400391 51.800781 C 19.600391 51.60078 20.599609 50.700394 21.099609 49.400391 L 22.5 45.400391 C 22.9 44.100391 23.80039 43.100391 24.900391 42.400391 C 31.700392 38.400391 34.299999 34.20039 33 29.400391 C 32.5 27.400391 31.200392 25.6 29.400391 24.5 C 26.000391 22.299999 22.400391 22.499609 18.400391 25.099609 L 18 27.5 C 18 27.700001 17.999609 27.80039 18.099609 27.900391 C 18.19961 28.000391 18.300001 28.099609 18.5 28.099609 L 19.5 28.199219 C 21.799999 28.499218 23.299999 30.600391 23 32.900391 C 22.799999 34.400391 21.599609 35.699219 20.099609 36.199219 L 18 37 L 17.699219 37 C 17.299219 37 16.89922 36.700783 16.699219 36.300781 C 16.499218 35.800781 16.80039 35.200001 17.400391 35 L 19.400391 34.400391 C 20.20039 34.20039 20.700781 33.499218 20.800781 32.699219 C 21.000782 31.599218 20.199999 30.50078 19 30.300781 L 18 30.199219 C 17.299999 30.099218 16.700783 29.699219 16.300781 29.199219 C 15.900782 28.599218 15.700781 27.900782 15.800781 27.300781 L 16.300781 24.5 C 15.800781 17.5 18.799608 13.300781 25.099609 12.300781 C 25.949609 12.150781 26.800391 12.075391 27.642578 12.072266 z M 57.1875 29.150391 C 57.05625 29.175391 56.925781 29.225781 56.800781 29.300781 C 56.300781 29.60078 56.200001 30.199219 56.5 30.699219 C 58.799999 34.39922 59.500389 38.899612 58.400391 43.099609 C 57.400391 47.399609 54.700001 51.000782 51 53.300781 C 50.5 53.60078 50.399219 54.199219 50.699219 54.699219 C 50.999218 55.199219 51.599609 55.299999 52.099609 55 C 60.699608 49.599998 63.399219 38.299608 58.199219 29.599609 C 57.974219 29.224609 57.581251 29.07539 57.1875 29.150391 z M 52.587891 31.550781 C 52.45664 31.575781 52.324219 31.624218 52.199219 31.699219 C 51.699219 31.999218 51.600391 32.599609 51.900391 33.099609 C 53.500389 35.79961 54.000778 38.999611 53.300781 42.099609 C 52.500782 45.199608 50.600391 47.799999 47.900391 49.5 C 47.400391 49.799999 47.29961 50.400391 47.599609 50.900391 C 47.899609 51.400391 48.5 51.499218 49 51.199219 C 51.999996 49.099213 54.299217 46.099998 55.199219 42.5 C 56.09922 38.900002 55.499607 35.200001 53.599609 32 C 53.37461 31.625 52.981641 31.475781 52.587891 31.550781 z M 48.087891 35.75 C 47.95664 35.775 47.824219 35.825391 47.699219 35.900391 C 47.199219 36.20039 47.100391 36.800781 47.400391 37.300781 C 49.100391 40.000782 48.200001 43.599216 45.5 45.199219 C 45 45.499218 44.899219 46.099609 45.199219 46.599609 C 45.499218 47.099609 46.099609 47.20039 46.599609 46.900391 C 50.099609 44.600384 51.29961 39.799217 49.099609 36.199219 C 48.87461 35.824219 48.481641 35.675 48.087891 35.75 z"/></svg>