<svg xmlns="http://www.w3.org/2000/svg"  viewBox="0 0 72 72" width="64px" height="64px"><path d="M42.16 38.64l16.01 16.02C56.72 55.55 54.93 56 52.78 56H19.22c-2.15 0-3.94-.45-5.39-1.34l16.01-16.02c3.39 3.11 4.32 3.35 6.16 3.35S38.77 41.75 42.16 38.64zM61.99 25.24v21.55c0 1.7-.28 3.19-.85 4.45L45.42 35.52l15.43-15.31C61.61 21.59 61.99 23.27 61.99 25.24zM26.58 35.52L10.86 51.24c-.57-1.26-.85-2.75-.85-4.45V25.24c0-1.97.38-3.65 1.14-5.03L26.58 35.52zM32.69 35.42C27.72 30.66 14.33 17.1 14.33 17.1c1.35-.72 2.98-1.07 4.89-1.07h33.56c1.91 0 3.54.35 4.89 1.07 0 0-13.39 13.56-18.36 18.32-1.25 1.21-2.12 1.91-3.31 1.73C34.81 37.33 33.94 36.63 32.69 35.42z"/></svg>