<svg xmlns="http://www.w3.org/2000/svg"  viewBox="0 0 72 72" width="64px" height="64px"><path d="M 22 14 C 17.59 14 14 17.59 14 22 L 14 50 C 14 54.41 17.59 58 22 58 L 42 58 L 42 50 C 42 45.59 45.59 42 50 42 L 58 42 L 58 22 C 58 17.59 54.41 14 50 14 L 22 14 z M 28 26 L 44 26 C 45.104 26 46 26.896 46 28 C 46 29.104 45.104 30 44 30 L 28 30 C 26.896 30 26 29.104 26 28 C 26 26.896 26.896 26 28 26 z M 28 33.5 L 44 33.5 C 45.104 33.5 46 34.396 46 35.5 C 46 36.604 45.104 37.5 44 37.5 L 28 37.5 C 26.896 37.5 26 36.604 26 35.5 C 26 34.396 26.896 33.5 28 33.5 z M 28 41 L 36 41 C 37.104 41 38 41.896 38 43 C 38 44.104 37.104 45 36 45 L 28 45 C 26.896 45 26 44.104 26 43 C 26 41.896 26.896 41 28 41 z M 50 46 C 47.79 46 46 47.79 46 50 L 46 57.869141 C 46.69 57.689141 47.320078 57.340078 47.830078 56.830078 L 56.830078 47.830078 C 57.340078 47.320078 57.689141 46.69 57.869141 46 L 50 46 z"/></svg>